<svg width="30" height="30" viewBox="0 0 30 30" fill="none" xmlns="http://www.w3.org/2000/svg">
<path fill-rule="evenodd" clip-rule="evenodd" d="M6.5625 11.25C6.04473 11.25 5.625 11.6697 5.625 12.1875V27.1875C5.625 27.7053 6.04473 28.125 6.5625 28.125H23.4375C23.9553 28.125 24.375 27.7053 24.375 27.1875V12.1875C24.375 11.6697 23.9553 11.25 23.4375 11.25H19.6875C19.1697 11.25 18.75 10.8303 18.75 10.3125C18.75 9.79473 19.1697 9.375 19.6875 9.375H23.4375C24.9908 9.375 26.25 10.6342 26.25 12.1875V27.1875C26.25 28.7408 24.9908 30 23.4375 30H6.5625C5.0092 30 3.75 28.7408 3.75 27.1875V12.1875C3.75 10.6342 5.0092 9.375 6.5625 9.375H10.3125C10.8303 9.375 11.25 9.79473 11.25 10.3125C11.25 10.8303 10.8303 11.25 10.3125 11.25H6.5625Z" fill="white"/>
<path fill-rule="evenodd" clip-rule="evenodd" d="M14.3371 0.274587C14.7032 -0.0915292 15.2968 -0.0915292 15.6629 0.274587L21.2879 5.89959C21.654 6.2657 21.654 6.8593 21.2879 7.22541C20.9218 7.59153 20.3282 7.59153 19.9621 7.22541L15.9375 3.20082V19.6875C15.9375 20.2053 15.5178 20.625 15 20.625C14.4822 20.625 14.0625 20.2053 14.0625 19.6875V3.20082L10.0379 7.22541C9.6718 7.59153 9.0782 7.59153 8.71209 7.22541C8.34597 6.8593 8.34597 6.2657 8.71209 5.89959L14.3371 0.274587Z" fill="white"/>
</svg>
